/* XPM */
static char *_97606a04bb54bb7880077d2382105b8W3YPxoBib8zGLy8b[] = {
/* columns rows colors chars-per-pixel */
"64 64 153 2 ",
"   c #C7BD02",
".  c #C9BE03",
"X  c #CBC003",
"o  c #C8B903",
"O  c #9C9301",
"+  c #AB2600",
"@  c #AC2800",
"#  c #A19301",
"$  c #C4BA03",
"%  c #C5BA03",
"&  c #C8BB03",
"*  c #CBBF03",
"=  c #CDC003",
"-  c #988E02",
";  c #978D02",
":  c #C6BC04",
">  c #9C9B01",
",  c #939D01",
"<  c #C3B903",
"1  c #A73D0B",
"2  c #BE0038",
"3  c #BE0A39",
"4  c #93A101",
"5  c #583E0C",
"6  c #5E480A",
"7  c #8D8202",
"8  c #979101",
"9  c #43DA00",
"0  c #2DF200",
"q  c #3AE000",
"w  c #A29617",
"e  c #A63900",
"r  c #9A001D",
"t  c #D715C4",
"y  c #99000A",
"u  c #A2960C",
"i  c #5C440B",
"p  c #563B0C",
"a  c #634C0C",
"s  c #3DD700",
"d  c #02C904",
"f  c #35DA01",
"g  c #C4B503",
"h  c #A63700",
"j  c #D300C6",
"k  c #52350C",
"l  c #5E1209",
"z  c #5E0209",
"x  c #683608",
"c  c #C2B503",
"v  c #99A501",
"b  c #46CF01",
"n  c #8DA801",
"m  c #9E2C3D",
"M  c #8EA701",
"N  c #60030A",
"B  c #622508",
"V  c #653208",
"C  c #C1B504",
"Z  c #9DA301",
"A  c #C2B303",
"S  c #601309",
"D  c #610B09",
"F  c #642B08",
"G  c #534719",
"H  c #554819",
"J  c #918403",
"K  c #611C09",
"L  c #5D0A09",
"P  c #6A3C07",
"I  c #3C0A02",
"U  c #3E1700",
"Y  c #693A08",
"T  c #580C07",
"R  c #857903",
"E  c #6D4307",
"W  c #412A01",
"Q  c #570808",
"!  c #2B0202",
"~  c #1D0101",
"^  c #422403",
"/  c #320203",
"(  c #540607",
")  c #240201",
"_  c #3A0303",
"`  c #6C5D03",
"'  c #705F03",
"]  c #726303",
"[  c #74620B",
"{  c #736C01",
"}  c #581107",
"|  c #643407",
" . c #5F1908",
".. c #6C6501",
"X. c #653A07",
"o. c #560208",
"O. c #150101",
"+. c #540A07",
"@. c #777001",
"#. c #797301",
"$. c #300802",
"%. c #5C2907",
"&. c #3E3B00",
"*. c #1E1301",
"=. c #3C2402",
"-. c #7A6D03",
";. c #2A1400",
":. c #404200",
">. c #676201",
",. c #5A2706",
"<. c #311D00",
"1. c #250D00",
"2. c #2E2B00",
"3. c #473D01",
"4. c #0C0100",
"5. c #591B07",
"6. c #332400",
"7. c #2A2600",
"8. c #1B0E01",
"9. c #262900",
"0. c #020100",
"q. c #391C02",
"w. c #351702",
"e. c #241800",
"r. c #2D1B00",
"t. c #3E2901",
"y. c #6F6801",
"u. c #362900",
"i. c #B6AB03",
"p. c #4A3501",
"a. c #3D3100",
"s. c #463101",
"d. c #BFB204",
"f. c #251100",
"g. c #4F300C",
"h. c #4C2B0C",
"j. c #65500C",
"k. c #6C5A0A",
"l. c #483B01",
"z. c #471F0C",
"x. c #715E0B",
"c. c #5D5201",
"v. c #665303",
"b. c #49240C",
"n. c #7A5A07",
"m. c #685404",
"M. c #765507",
"N. c #6E4C06",
"B. c #4D4001",
"V. c #674106",
"C. c #704D07",
"Z. c #847703",
"A. c white",
/* pixels */
"      . X X X . X . X . . X . X o o o X . X X . X . X . . . O + @ # $ X . . X .   X .   X $ % & . * . X X . X . X X X = . . . . ",
"- ; O $ .     . X . . X X . . : > , > < X . . X . X X . . # 1 2 3 1 #   * . . X X X X X $ > 4 > % . X . . . . * . . $ . $ O ; ; ",
"5 6 7 8 ; ; O $ X . . . . . . > 9 0 q , $ X X . . X . . w e r t t y e u . * X . . . X o , q 0 9 > . X . . . X . % O 8 - 8 7 i 5 ",
"p 5 i i p a 7 O % . . X . X o > s d f 4 g = . X . . = . w h r j j y h u = X . X X X X g 4 f d s > & . X * . . % O 7 a p i i p p ",
"p p p k l z x 7 ; # c . o X X $ v b n g X . X . = . X .   # 1 m m 1 # $ . . X . . X . X g M b v & * . . . % O - 7 x z l k p p 5 ",
"p p p p l N N B V 7 8 ; O . . . C Z c X . X * . . X = . = : O 7 7 # . X . X . X X . X . X c Z A . . % O ; - 7 V B z z S p p p p ",
"p p p p l D S z z F B F 7 8 - - > A X . X . . X . X . . . . O G H 8 . X . X . . X . X . . . c > - - - J F K F N z S z l p p p p ",
"p p p p l z L S S z N N F F K F 7 8 O < X   . & O < X     O P I U Y O     X < # $ . . X $ O 8 7 F B B F D N z S S D N l p p p p ",
"p p p p L D L N D D l T z z z z B V R - - - - - E J 8 - ; E z W W z E ; - O J E ; 8 - - - 7 F B z z z z L S D L D L z l 5 p p p ",
"p p p p l z D L D Q ! ~ ! T D S z z V F B B B B z B B B B z z ^ ^ z z B B B B z B B B B F V z z S D T ! ~ ! Q D L D z l p p p p ",
"p p p p l L D D L / ( z ( / Q D l S z z N N N z S N z z z D D ^ ^ D D z z z N S z N N N z z S l D Q / ( z ( / L D D L l p p p 5 ",
"p p p p L D D L ! ( L L L ( ! L D z S S S S S S z N S S K D z ^ ^ z D K S S N z S S S S S S z D L ! ( L L L ( ! L D D L p p p p ",
"p p 5 p S L D Q ) Q _ ( _ ( ! ( D D L D D L L N D K S N z z D ^ ^ D z z N S K D N L L D D L D D ( ! ( _ ( _ Q ) Q D L S p p p p ",
"p p p p L z D L ) Q Q L L Q ) L D L z z z z P V.B V.n.z B L L ^ ^ L L B z n.V.B V.P z z z z L D L ) Q L L Q Q ) L D z L p p p p ",
"p p p p l D D L ! ( _ ( _ ( ! Q D z S K K K z ] ] V.#.V C.F z ^ ^ z F C.V #.V.] ] z K K K S z D Q ! ( _ ( _ ( ! L D D l p 5 p p ",
"p p p p l z D Q ~ L Q ! Q L ) T N B [ { { ] F V ' X.] n.]  .z ^ ^ z  .] n.] X.' V F ] { { [ B N T ) L Q ! Q L ~ Q D z l p 5 p p ",
"5 p p p D D D z ! Q L ( L Q ) z B ] Y B F F ] | N.M.K M.M.n.x ^ ^ x n.M.M.K M.N.| ] F F B Y ] B z ) Q L ( L Q ! z D D D p 5 p p ",
"p p p p D D L D Q ! ) ! ) ! o.B ] | z z z z F ] V.C.K V C.n.x ^ ^ x n.C.V K C.V.] F z z z z | ] B o.! ) ! ) ! Q D L D D p p p p ",
"p p p p l z D z D Q ( O.+.z  .] X.z L B F B F F ..@.#.v.B L l ^ ^ l L B v.#.@...F F B F B L z X.]  .z +.O.( Q D z D z l p p p p ",
"p p p 5 l D L D z D L ) L Q $.%.z L D N.{ P V ` &.{ @.&.w.! Q ^ =.Q ! w.&.@.{ &.` V P { N.D L z %.$.Q L ) L D z D L D l p p p p ",
"p p p p l z D z L D L ) ( / ( N L D z r.n.@.Y :.>.{ Y X.V.,.! =.=.! ,.V.X.Y { >.:.Y @.n.r.z D L N ( / ( ) L D L z D z l p p p p ",
"p p p p l D D L z D L O.) Q D L L V V.u.B M.E u...O.( ,.*.B ~ =.=.~ B *.,.( O...u.E M.B u.V.V L L D Q ) O.L D z L D D l p p p p ",
"p p p p L D D L D L ) 4.( z L D D ' @.` ! V.v.2.5.o.4.o.5.l ) 6.=.) l 5.o.4.o.5.2.v.V.! ` @.' D D L z ( 4.) L D L D D L p p p p ",
"p p p p l D L L L ) 4.+.! ) L D L L V.L 8.9.7.4.o.~ +.L ~ z ! 6.6.! z ~ L +.~ o.4.7.9.8.L V.L L D L ) ! +.4.) L L L D l p 5 p p ",
"p p 5 p l N D D Q ~ Q D ( ~ ( D L / ( / 0.( o.) T L L L +.Q ! 6.=.! Q +.L L L T ) o.( 0./ ( / L D ( ~ ( D Q ~ Q D D N l p p p 5 ",
"p p p p l z L L ! O.Q D Q ~ ) Q L O.~ +.) Q D Q ! ) ~ ) ) ) +.^ ^ +.) ) ) ~ ) ! Q D Q ) +.~ O.L Q ) ~ Q D Q O.! L L z l p p p p ",
"p p p p q.w.w.w.e.e.w.q.w.r.e.<.w.r.e.q.r.<.<.w.e.e.e.e.e.e.w.=.=.w.e.e.e.e.*.e.q.w.<.r.w.e.r.<.w.e.e.w.q.w.;.e.w.<.w.q.p p p p ",
"p p p p 7.r.r.r.<.r.r.r.r.r.<.r.r.r.r.r.r.r.r.r.r.<.<.r.<.r.r.=.=.r.r.<.<.<.<.<.e.r.r.r.r.r.r.r.r.<.r.r.r.r.r.<.r.r.r.r.k 5 p p ",
"p p p p <.r.=.W W t.W ^ W t.t.^ r.r.r.t.W t.W ^ t.t.W t.t.r.r.=.=.r.r.t.t.t.t.^ W ^ t.t.t.r.r.<.t.W t.W W ^ t.t.W =.r.6.p p p p ",
"p p p p <.r.W W W W W W W W W W r.r.r.W W W W W W ^ W W W <.r.=.=.r.6.W W W W W W W W W t.r.r.<.W W W W W W W W W W r.<.p p p p ",
"p p p p <.r.W W <.r.<.r.r.<.t.W r.r.r.t.W <.<.r.<.r.<.t.W <.r.=.q.r.<.W t.<.<.r.r.<.<.W t.r.r.r.W W <.r.r.r.r.6.W ^ r.r.p p p p ",
"p p p p <.r.W W r.r.r.<.r.r.W W r.r.r.W W <.r.r.r.r.r.W W <.q.W W 6.<.W t.r.r.r.r.r.<.W W r.r.r.W t.r.r.6.r.r.r.t.W r.<.p p p p ",
"p p p p <.r.W W ;.6...y.u.;.t.W r.r.r.W ^ r.7...] u.;.t.W q.W i.i.t.=.W W ;.t.{ ..<.r.W W r.r.r.W W ;.u.y...6.r.W W r.<.p p p p ",
"p p p p <.r.W W ;.u.@.#.u.;.W W <.r.r.t.W r.6.{ #.t.1.W p.<.W : : =.=.W W 1.a.#.{ 7.r.W t.<.r.r.W W e.t.#.@.6.;.W W r.<.p p p p ",
"p p p p <.r.W W ;.6...] u.;.W W r.r.r.^ W r.r...{ a.;.W s.q.W d.c =.q.W W 1.t.y...r.<.W t.r.r.<.W W ;.u.....6.r.W W r.<.p p p p ",
"p p p p 6.r.t.W r.r.<.7.r.r.W W r.r.r.t.W <.r.<.7.r.r.t.s.w.W % $ =.=.W W r.r.7.<.;.<.W ^ r.r.r.W t.r.r.<.<.r.r.W W r.r.p p p p ",
"p p p p <.r.W W 6.r.r.<.<.<.t.W <.r.r.t.W <.<.<.r.r.<.t.W q.W i.i.=.q.W t.<.<.r.<.r.<.W W r.r.r.W W <.r.<.r.r.<.W W r.<.p p p p ",
"p p p p <.r.W W W W W W W ^ W W <.r.r.t.W W W W W W W W W <.=.s.s.=.6.W W W W W W W W W W r.r.<.W W W W W W W W W ^ r.7.k p p p ",
"p p p p <.r.t.t.t.^ t.t.t.t.t.t.r.r.r.t.W t.t.W =.W W t.t.r.r.w.w.r.<.t.t.^ t.t.t.t.t.^ t.r.r.r.t.^ t.t.W t.W t.W t.r.r.p p p p ",
"p p p p <.r.r.r.r.r.r.r.r.r.r.r.r.r.r.r.r.r.r.r.r.r.r.r.r.r.r.t.t.r.r.r.r.r.r.r.r.r.r.r.r.r.r.r.r.r.r.r.r.r.r.r.r.r.r.<.5 p p p ",
"p p p p r.r.r.r.r.r.r.r.r.r.r.r.r.r.r.r.r.r.r.r.r.r.r.r.r.r.r.=.=.r.r.r.r.r.r.r.r.r.r.r.r.r.r.r.r.r.r.r.r.r.r.r.r.r.r.r.p p p p ",
"p p p p r.r.r.r.r.r.r.r.r.;.r.r.r.r.r.r.r.r.;.r.r.r.r.r.r.r.r.=.=.r.r.r.r.r.r.r.;.r.r.r.r.r.r.r.;.r.r.r.r.r.r.r.r.r.r.<.p p p p ",
"p p p p 6.r.r.r.r.<.<.<.r.<.<.<.r.r.r.r.<.r.<.<.<.r.<.<.r.r.r.=.=.r.r.r.<.r.<.<.<.r.r.<.r.r.r.r.<.r.r.<.r.<.<.r.<.r.r.6.p p p p ",
"p p p p r.r.t.W W W W W W W W t.<.r.r.t.W W W W W W W W t.<.r.=.=.r.<.W W W W W W W W W t.r.r.<.W W W W W W W W W ^ r.<.p p p p ",
"p p p p <.r.W W t.t.W W t.W W W <.r.r.t.W t.W W W t.t.W W <.r.=.=.;.<.W W t.t.W W t.t.W t.r.r.<.W W t.W W W W t.W W r.r.p p p p ",
"p p p p <.r.W W r.r.;.f.r.r.t.W r.r.r.W W <.r.;.1.r.r.W W r.;.=.t.r.<.W t.r.r.e.;.r.6.W W r.r.r.W t.r.r.e.;.r.<.W t.r.6.k p p p ",
"p p p p <.r.W W r.r.t.a.r.r.t.W <.r.r.t.^ w.r.u.t.7.r.W W r.r.=.=.r.r.W W r.r.t.t.r.r.W W r.r.<.W W r.r.t.u.r.r.t.W r.r.p p p p ",
"p p p p <.r.W W r.6.{ { u.;.W W r.r.r.t.W r.7.{ @.t.f.W W <.r.=.=.;.<.W W 1.a.{ y.r.r.W t.r.r.r.W W ;.u.{ { 6.;.W W r.<.p p p p ",
"p p p p <.r.t.W ;.6.@.@.u.;.W W r.r.r.t.W r.7.{ -.t.f.W W <.r.=.=.r.r.W W 1.a.@.{ r.r.W t.r.r.6.W W ;.u.#.{ 6.;.W W r.r.p p p p ",
"p p p p 6.r.W W ;.6.] @.u.e.W W r.r.r.W W r.6.y.{ a.f.W W <.r.=.=.r.<.W W 1.a.@.{ r.w.W t.r.r.r.^ W e.t.{ { 6.r.W W r.<.p p p p ",
"p p p p <.r.W W r.6.{ @.u.;.W W <.r.r.^ W r.<.{ @.a.;.W W <.r.=.=.r.<.W W f.a.@.{ r.r.W t.r.r.r.W W f.u.{ { 6.r.W W r.<.p p p p ",
"p p p p <.r.W W ;.6.{ @.u.;.t.W r.r.r.t.W r.6.] { t.f.W W r.;.=.=.r.<.W W 1.a.@.] 7.r.W W r.r.r.W t.;.t.{ { 6.;.W W r.<.p p p p ",
"p p p p 7.r.W W ;.u.{ #.u.;.W W <.r.r.t.W ;.6.{ #.a.1.W W <.r.=.=.r.r.W W 1.a.#.{ 7.w.W W <.r.r.W W ;.u.#.{ 6.;.W t.r.<.p p p p ",
"p p p p 6.r.W W r.6.y.{ 6.;.W W r.r.r.W W r.7...y.t.;.t.W r.r.=.=.r.<.W W 1.a.] y.r.r.W t.r.r.r.W W ;.u.{ y.6.r.W t.r.6.5 p p p ",
"p p g.h.) r.W W r.r.6.6.r.r.t.W r.r.r.W W <.r.6.u.r.r.t.W <.r.=.=.r.r.W t.r.r.6.6.r.r.W W r.r.r.W W r.r.6.6.r.r.W W r.) h.k p p ",
"i g.j.k.l.1.W W r.r.r.;.r.<.t.W <.r.r.^ W <.<.;.r.r.r.t.W <.r.=.=.r.<.W W r.r.;.r.r.<.W t.r.r.r.W t.r.r.r.;.r.<.W s.1.3.k.a g.i ",
"z.x.< g $ c.) p.W W W W W W W W <.r.r.W W W W W W W W W W r.r.=.=.r.r.W W W W W W W W W W r.r.r.W W W W W W t.W p.) v.d.< < k.b.",
"x.< C n.d.% m.! W W W W W W W t.r.r.r.t.^ W t.W W ^ W t.t.w.r.=.=.r.<.t.W W W W t.W W W t.r.r.<.t.W W t.W W W t.! v.$ d.n.c < [ ",
"% d.n.v.M.A $ c.1.r.r.r.r.r.r.r.r.r.r.r.r.r.r.r.r.r.r.r.r.r.r.=.=.r.r.r.r.r.r.r.r.r.r.r.r.r.r.r.r.r.r.r.r.r.r.1.c.$ A M.v.n.c   ",
": M.m.N.m.M.d.C l.) 6.<.<.<.<.<.<.<.7.r.<.<.6.r.6.<.<.<.6.r.7.=.=.<.r.<.<.<.<.<.<.r.6.r.<.<.<.<.<.<.<.<.<.u.~ B.C A M.m.N.m.M.$ ",
"% -.V.[ N.v.n.$ k.h.p p p p p p p p p p p p p p p p p k p p p p p p p p p p p p p p p p p p p p p p p p p i b.k.g n.v.N.[ Y -.< ",
"% N.v.V.v.n.c C a k p p p p p p p p p p p p p p p p p p p p p p p p p p p p p p p p p p p p p p p p p p p i k a C C M.v.V.v.C.< ",
"% Z.C.-.M.d.: k.k p p p p p p p p p p p p p p p p p p p p p p p p p p p p p p p p p p p p p p p p p p p p p p k k.% A n.-.N.R   ",
". % % g $ : [ z.i p p p p p p p p p p p p p p p p p p p p p p p p p p p p p p p p p p p p p p p p p p p p p p p b.[ $ $ $ < . . "
};
