/* XPM */
static char *da958f58008f4d50f078f1c5a804c8c6gnjjWo34s7biIWB3[] = {
/* columns rows colors chars-per-pixel */
"64 64 157 2 ",
"   c #020100",
".  c #0C0100",
"X  c #150101",
"o  c #1D0101",
"O  c #1B0E01",
"+  c #1E1301",
"@  c #240201",
"#  c #2B0202",
"$  c #250D00",
"%  c #320203",
"&  c #3A0303",
"*  c #300802",
"=  c #3C0A02",
"-  c #251100",
";  c #2A1400",
":  c #241800",
">  c #2D1B00",
",  c #351702",
"<  c #3E1700",
"1  c #311D00",
"2  c #391C02",
"3  c #2A2600",
"4  c #262900",
"5  c #2E2B00",
"6  c #332400",
"7  c #3C2402",
"8  c #362900",
"9  c #3E2901",
"0  c #3D3100",
"q  c #3E3B00",
"w  c #540607",
"e  c #540A07",
"r  c #580C07",
"t  c #560208",
"y  c #5E0209",
"u  c #570808",
"i  c #5D0A09",
"p  c #471F0C",
"a  c #581107",
"s  c #591B07",
"d  c #5E1209",
"f  c #5F1908",
"g  c #60030A",
"h  c #610B09",
"j  c #601309",
"k  c #611C09",
"l  c #422403",
"z  c #412A01",
"x  c #49240C",
"c  c #4C2B0C",
"v  c #5A2706",
"b  c #5C2907",
"n  c #463101",
"m  c #4A3501",
"M  c #473D01",
"N  c #483B01",
"B  c #4F300C",
"V  c #52350C",
"C  c #563B0C",
"Z  c #583E0C",
"A  c #622508",
"S  c #642B08",
"D  c #643407",
"F  c #653A07",
"G  c #6A3C07",
"H  c #653208",
"J  c #683608",
"K  c #693A08",
"L  c #3F4000",
"P  c #404200",
"I  c #4D4001",
"U  c #5C440B",
"Y  c #5E480A",
"T  c #5D5201",
"R  c #534719",
"E  c #554819",
"W  c #674106",
"Q  c #6D4307",
"!  c #6E4C06",
"~  c #634C0C",
"^  c #704D07",
"/  c #665303",
"(  c #685404",
")  c #6C5D03",
"_  c #65500C",
"`  c #6C5A0A",
"'  c #765507",
"]  c #705F03",
"[  c #7A5A07",
"{  c #715E0B",
"}  c #676201",
"|  c #6C6501",
" . c #6F6801",
".. c #726303",
"X. c #736C01",
"o. c #7A6D03",
"O. c #74620B",
"+. c #777001",
"@. c #797301",
"#. c #99000A",
"$. c #9A001D",
"%. c #AB2600",
"&. c #AC2800",
"*. c #A63700",
"=. c #A63900",
"-. c #A73D0B",
";. c #BE0038",
":. c #BE0A39",
">. c #9E2C3D",
",. c #847703",
"<. c #857903",
"1. c #02C904",
"2. c #3DD700",
"3. c #35DA01",
"4. c #3AE000",
"5. c #2DF200",
"6. c #46CF01",
"7. c #43DA00",
"8. c #8D8202",
"9. c #918403",
"0. c #978D02",
"q. c #988E02",
"w. c #979101",
"e. c #9C9301",
"r. c #939D01",
"t. c #9C9B01",
"y. c #A19301",
"u. c #A2960C",
"i. c #A29617",
"p. c #8EA701",
"a. c #8DA801",
"s. c #93A101",
"d. c #9DA301",
"f. c #99A501",
"g. c #B6AB03",
"h. c #BFB204",
"j. c #C2B303",
"k. c #C2B503",
"l. c #C4B503",
"z. c #C7B703",
"x. c #C1B504",
"c. c #C3B903",
"v. c #C4BA03",
"b. c #C5BA03",
"n. c #C7BD02",
"m. c #C7BC03",
"M. c #C6BC04",
"N. c #C8B903",
"B. c #C8BB03",
"V. c #C9BE03",
"C. c #CABE03",
"Z. c #CBBF03",
"A. c #CBC003",
"S. c #CBC103",
"D. c #CDC003",
"F. c #D300C6",
"G. c #D715C4",
/* pixels */
"n.n.n.V.A.A.A.V.A.V.A.V.V.A.V.A.N.N.N.A.V.A.A.V.A.V.A.V.V.V.e.%.&.y.v.A.V.V.A.V.n.A.V.n.A.v.b.B.V.Z.V.A.A.V.A.V.A.A.A.D.V.V.V.V.",
"q.0.e.v.V.n.n.V.A.V.V.A.A.V.V.M.t.r.t.c.A.V.V.A.V.A.A.V.V.y.-.;.:.-.y.n.Z.V.V.A.A.A.A.A.v.t.s.t.b.V.A.V.V.V.V.Z.V.V.v.V.v.e.0.0.",
"Z Y 8.w.0.0.e.v.A.V.V.V.V.V.V.t.7.5.4.r.v.A.A.V.V.A.V.V.i.=.$.G.G.#.=.u.V.Z.A.V.V.V.A.N.r.4.5.7.t.V.A.V.V.V.A.V.b.e.w.q.w.8.U Z ",
"C Z U U C ~ 8.e.b.V.V.A.V.A.N.t.2.1.3.s.l.D.V.A.V.V.D.V.i.*.$.F.F.#.*.u.D.A.V.A.A.A.A.l.s.3.1.2.t.B.V.A.Z.V.V.b.e.8.~ C U U C C ",
"C C C V d y J 8.0.y.k.V.N.A.A.v.f.6.a.l.A.V.A.V.D.V.A.V.n.y.-.>.>.-.y.v.V.V.A.V.V.A.V.A.l.p.6.f.B.Z.V.V.V.b.e.q.8.J y d V C C Z ",
"C C C C d g g A H 8.w.0.e.V.V.V.x.d.k.A.V.A.Z.V.V.A.D.V.D.M.e.8.8.y.V.A.V.A.V.A.A.V.A.V.A.k.d.j.V.V.b.e.0.q.8.H A y y j C C C C ",
"C C C C d h j y y S A S 8.w.q.q.t.j.A.V.A.V.V.A.V.A.V.V.V.V.e.R E w.V.A.V.A.V.V.A.V.A.V.V.V.k.t.q.q.q.9.S k S g y j y d C C C C ",
"C C C C d y i j j y g g S S k S 8.w.e.c.A.n.V.B.e.c.A.n.n.e.G = < K e.n.n.A.c.y.v.V.V.A.v.e.w.8.S A A S h g y j j h g d C C C C ",
"C C C C i h i g h h d r y y y y A H <.q.q.q.q.q.Q 9.w.q.0.Q y z z y Q 0.q.e.9.Q 0.w.q.q.q.8.S A y y y y i j h i h i y d Z C C C ",
"C C C C d y h i h u # o # r h j y y H S A A A A y A A A A y y l l h y A A A A y A A A A S S y y j j r # o # u y i h g d C C C C ",
"C C C C d i h h i % w y w % u h d j y y g g g y j g y y y h h l l i h y y y g j g y g y y y j j h u % w i w % u h i h d C C C Z ",
"C C C C i h h i # w i i i w # i h y j j j j j j y g j j k h y l l h i j j j y i j j j j j j g h i # u i h i u # y i y d C C C C ",
"C C Z C j i h u @ u & w & w # w h h i h h i i g h k j g y y h l l i h y y h k h y h h i h i y h w @ u & u & u @ i h g d C C C C ",
"C C C C i y h i @ u u i i u @ i h i y y y y h y k ) S y A i i l l h j k y S ] k y i y g y g h h i @ i u i u u @ i h y d C C C C ",
"C C C C d h h i # w & w & w # u h y j k k k y h j H j i ..S y l l y S ) j j H j h y k k k j y h u # w & u & u @ i i y d C Z C C ",
"C C C C d y h u o i u # u i @ r g A O.X.X...S y k ) S y H j y l l y k H y A ) k y S ..X.X...A g a o y w # u u @ i i g h C Z C C ",
"Z C C C h h h y # u i w i u @ y A ..K A S S ..D y H f g | S y l l y S | i f S y H ..S A A F ] S y @ u i u y w # i h h i C Z C C ",
"C C C C h h i h u # @ # @ # t A ..D y y y y S ..S | X.S S f h l l h j S S X.| D ) H i y y y F ] A t # @ @ @ # u h i y d C C C C ",
"C C C C d y h y h u w X e y f ..F y i i k ..S S | +.@...d y d l l d y f X.@.+...S S ..k g j y F ..k y e X w i h i h y d C C C C ",
"C C C Z d h i h y h i @ i u * b y i h i d H ..| q X.+.q + # u l 7 i @ + q o.X.q ....S k i i h g b # i u @ y h i h i h d C C C C ",
"C C C C d y h y i h i @ w % w g i h y ; ) S ..P } X.K ) X.v # 7 7 @ b X.) D X.} q ..S ) 1 y h i g w % w @ i h i h i g d C C C C ",
"C C C C d h h i y h i X @ u h i i i y $ v S X.5 | M w S X.S o 7 7 X H ..H w M | 5 X.S b $ u h i i h w @ X y h i i h y d C C C C ",
"C C C C i h h i h i @ . w y i h h h i y # | X.5 s t # t A r @ 6 7 @ d A t # t s 3 o.| # y i i h i i h w . # i i i h g j C C C C ",
"C C C C d h i i i @ . e # @ i h i i i i O 4 3 . t = e i % y # 6 6 @ y % d e = y . 3 4 O i h y i h i @ # w   # i h i g j C Z C C ",
"C C Z C d g h h u o u h w o w h i % w %   w t @ r i i i r u # 6 7 @ y u i i u u @ y w . % w # i h w o w h u o u h h y d C C C Z ",
"C C C C d y i i # X u h u o @ u i X o e @ u h u # @ o @ @ @ e l l u @ @ @ @ @ # u h w @ w @ o u i o o i h u X # i i i d C C C C ",
"C C C C 2 , , , : : , 2 , > : 1 , > : 2 > 1 1 , : : : : : : , 7 7 , : : : : + : 2 , 1 > , : > 1 , : : , 2 , ; : , 1 , 2 C C C C ",
"C C C C 3 > > > 1 > > > > > 1 > > > > > > > > > > 1 1 > 1 > > 7 7 > > 1 1 1 1 1 : > > > > > > > > 1 > > > > > 1 > > > > V Z C C ",
"C C C C 1 > 7 z z 9 z l z 9 9 l > > > 9 z 9 z l 9 9 z 9 9 > > 7 7 > > 9 9 9 9 l z l 9 9 9 > > 1 9 z 9 z z l 9 9 z 7 > 6 C C C C ",
"C C C C 1 > z z z z z z z z z z > > > z z z z z z l z z z 1 > 7 7 > 6 z z z z z z z z z 9 > > 1 z z z z z z z z z z > 1 C C C C ",
"C C C C 1 > z z 1 > 1 > > 1 9 z > > > 9 z 1 1 > 1 > 1 9 z 1 > 7 2 > 1 z 9 1 1 > > 1 1 z 9 > > > z z 1 > > > > 6 z l > > C C C C ",
"C C C C 1 > z z > > > 1 > > z z > > > z z 1 > > > > > z z 1 2 z z 6 1 z 9 > > > > > 1 z z > > > z 9 > > 6 > > > 9 z > 1 C C C C ",
"C C C C 1 > z z ; 6 |  .8 ; 9 z > > > z l > 3 | ..8 ; 9 z 2 z g.g.9 7 z z ; 9 X.| 1 > z z > > > z z ; 8  .| 6 > z z > 1 C C C C ",
"C C C C 1 > z z ; 8 +.@.8 ; z z 1 > > 9 z > 6 X.@.9 $ z m 1 z M.M.7 7 z z $ 0 @.X.3 > z 9 1 > > z z : 9 @.+.6 ; z z > 1 C C C C ",
"C C C C 1 > z z ; 6 | ..8 ; z z > > > l z > > | X.0 ; z n 2 z h.k.7 2 z z $ 9  .| > 1 z 9 > > 1 z z ; 8 | | 6 > z z > 1 C C C C ",
"C C C C 6 > 9 z > > 1 3 > > z z > > > 9 z 1 > 1 3 > > 9 n , z b.v.7 7 z z > > 3 1 ; 1 z l > > > z 9 > > 1 1 > > z z > > C C C C ",
"C C C C 1 > z z 6 > > 1 1 1 9 z 1 > > 9 z 1 1 1 > > 1 9 z 2 z g.g.7 2 z 9 1 1 > 1 > 1 z z > > > z z 1 > 1 > > 1 z z > 1 C C C C ",
"C C C C 1 > z z z z z z z l z z 1 > > 9 z z z z z z z z z 1 7 n n 7 6 z z z z z z z z z z > > 1 z z z z z z z z z l > 3 V C C C ",
"C C C C 1 > 9 9 9 l 9 9 9 9 9 9 > > > 9 z 9 9 z 7 z z 9 9 > > , , > 1 9 9 l 9 9 9 9 9 l 9 > > > 9 l 9 9 z 9 z 9 z 9 > > C C C C ",
"C C C C 1 > > > > > > > > > > > > > > > > > > > > > > > > > > 9 9 > > > > > > > > > > > > > > > > > > > > > > > > > > 1 Z C C C ",
"C C C C > > > > > > > > > > > > > > > > > > > > > > > > > > > 7 7 > > > > > > > > > > > > > > > > > > > > > > > > > > > C C C C ",
"C C C C > > > > > > > > > ; > > > > > > > > ; > > > > > > > > 7 7 > > > > > > > ; > > > > > > > ; > > > > > > > > > > 1 C C C C ",
"C C C C 6 > > > > 1 1 1 > 1 1 1 > > > > 1 > 1 1 1 > 1 1 > > > 7 7 > > > 1 > 1 1 1 > > 1 > > > > 1 > > 1 > 1 1 > 1 > > 6 C C C C ",
"C C C C > > 9 z z z z z z z z 9 1 > > 9 z z z z z z z z 9 1 > 7 7 > 1 z z z z z z z z z 9 > > 1 z z z z z z z z z l > 1 C C C C ",
"C C C C 1 > z z 9 9 z z 9 z z z 1 > > 9 z 9 z z z 9 9 z z 1 > 7 7 ; 1 z z 9 9 z z 9 9 z 9 > > 1 z z 9 z z z z 9 z z > > C C C C ",
"C C C C 1 > z z > > ; - > > 9 z > > > z z 1 > ; $ > > z z > ; 7 9 > 1 z 9 > > : ; > 6 z z > > > z 9 > > : ; > 1 z 9 > 6 V C C C ",
"C C C C 1 > z z > > 9 0 > > 9 z 1 > > 9 l , > 8 9 3 > z z > > 7 7 > > z z > > 9 9 > > z z > > 1 z z > > 9 8 > > 9 z > > C C C C ",
"C C C C 1 > z z > 6 X.X.8 ; z z > > > 9 z > 3 X.+.9 - z z 1 > 7 7 ; 1 z z $ 0 X. .> > z 9 > > > z z ; 8 X.X.6 ; z z > 1 C C C C ",
"C C C C 1 > 9 z ; 6 +.+.8 ; z z > > > 9 z > 3 X.o.9 - z z 1 > 7 7 > > z z $ 0 +.X.> > z 9 > > 6 z z ; 8 @.X.6 ; z z > > C C C C ",
"C C C C 6 > z z ; 6 ..+.8 : z z > > > z z > 6  .X.0 - z z 1 > 7 7 > 1 z z $ 0 +.X.> , z 9 > > > l z : 9 X.X.6 > z z > 1 C C C C ",
"C C C C 1 > z z > 6 X.+.8 ; z z 1 > > l z > 1 X.+.0 ; z z 1 > 7 7 > 1 z z - 0 +.X.> > z 9 > > > z z - 8 X.X.6 > z z > 1 C C C C ",
"C C C C 1 > z z ; 6 X.+.8 ; 9 z > > > 9 z > 6 ..X.9 - z z > ; 7 7 > 1 z z $ 0 +...3 > z z > > > z 9 ; 9 X.X.6 ; z z > 1 C C C C ",
"C C C C 3 > z z ; 8 X.@.8 ; z z 1 > > 9 z ; 6 X.@.0 $ z z 1 > 7 7 > > z z $ 0 @.X.3 , z z 1 > > z z ; 8 @.X.6 ; z 9 > 1 C C C C ",
"C C C C 6 > z z > 6  .X.6 ; z z > > > z z > 3 |  .9 ; 9 z > > 7 7 > 1 z z $ 0 .. .> > z 9 > > > z z ; 8 X. .6 > z 9 > 6 Z C C C ",
"C C B c @ > z z > > 6 6 > > 9 z > > > z z 1 > 6 8 > > 9 z 1 > 7 7 > > z 9 > > 6 6 > > z z > > > z z > > 6 6 > > z z > @ c V C C ",
"U B _ ` N $ z z > > > ; > 1 9 z 1 > > l z 1 1 ; > > > 9 z 1 > 7 7 > 1 z z > > ; > > 1 z 9 > > > z 9 > > > ; > 1 z n $ M ` ~ B U ",
"p { c.l.v.T @ m z z z z z z z z 1 > > z z z z z z z z z z > > 7 7 > > z z z z z z z z z z > > > z z z z z z 9 z m @ / h.c.c.` x ",
"{ c.x.[ h.b.( # z z z z z z z 9 > > > 9 l z 9 z z l z 9 9 , > 7 7 > 1 9 z z z z 9 z z z 9 > > 1 9 z z 9 z z z 9 # / v.h.[ k.c.O.",
"b.h.[ / ' j.v.T $ > > > > > > > > > > > > > > > > > > > > > > 7 7 > > > > > > > > > > > > > > > > > > > > > > $ T v.j.' / [ k.n.",
"M.' ( ! ( ' h.x.N @ 6 1 1 1 1 1 1 1 3 > 1 1 6 > 6 1 1 1 6 > 3 7 7 1 > 1 1 1 1 1 1 > 6 > 1 1 1 1 1 1 1 1 1 8 o I x.j.' ( ! ( ' v.",
"b.o.W O.! / [ v.` c C C C C C C C C C C C C C C C C C V C C C C C C C C C C C C C C C C C C C C C C C C C U x ` l.[ / ! O.K o.c.",
"b.! / W / [ k.x.~ V C C C C C C C C C C C C C C C C C C C C C C C C C C C C C C C C C C C C C C C C C C C U V ~ x.x.' / W / ^ c.",
"b.,.^ o.' h.M.` V C C C C C C C C C C C C C C C C C C C C C C C C C C C C C C C C C C C C C C C C C C C C C C V ` b.j.[ o.! <.n.",
"V.b.b.l.v.M.O.p U C C C C C C C C C C C C C C C C C C C C C C C C C C C C C C C C C C C C C C C C C C C C C C C x O.v.v.v.c.V.V."
};
